<svg xmlns="http://www.w3.org/2000/svg" xmlns:xlink="http://www.w3.org/1999/xlink" width="1440" zoomAndPan="magnify" viewBox="0 0 1080 809.999993" height="1080" preserveAspectRatio="xMidYMid meet" version="1.0"><defs><g/></defs><g fill="#030303" fill-opacity="1"><g transform="translate(328.987564, 456.602088)"><g><path d="M 62.640625 -54.261719 C 51.90625 -48.820312 40.878906 -44.261719 29.996094 -39.410156 C 25.585938 -37.496094 29.410156 -31.027344 33.820312 -32.9375 C 39.261719 -35.292969 44.703125 -37.644531 50.144531 -40.144531 C 46.027344 -31.175781 41.613281 -21.910156 34.996094 -14.558594 C 22.792969 -1.03125 9.558594 -11.027344 10.734375 -27.496094 C 11.617188 -39.996094 17.351562 -52.496094 23.675781 -62.9375 C 26.617188 -67.789062 29.851562 -72.789062 33.378906 -77.054688 C 35.4375 -79.554688 37.9375 -82.347656 40.585938 -84.113281 C 47.789062 -88.816406 58.820312 -84.699219 56.761719 -73.816406 C 55.878906 -69.113281 62.9375 -67.054688 63.820312 -71.757812 C 65.4375 -80.289062 61.613281 -88.964844 53.527344 -92.640625 C 45.4375 -96.316406 37.792969 -92.050781 31.910156 -86.464844 C 18.234375 -73.378906 7.5 -52.347656 4.117188 -33.820312 C 1.617188 -20 6.027344 2.351562 24.851562 0.148438 C 32.9375 -0.882812 39.554688 -6.765625 44.703125 -14.117188 C 41.46875 -1.175781 38.085938 11.765625 34.996094 24.851562 C 33.820312 29.558594 41.027344 31.46875 42.203125 26.761719 C 47.789062 3.089844 54.40625 -20.441406 59.40625 -44.410156 C 61.761719 -45.4375 64.113281 -46.613281 66.320312 -47.644531 C 70.730469 -49.847656 66.90625 -56.320312 62.640625 -54.261719 Z M 62.640625 -54.261719 "/></g></g></g><g fill="#030303" fill-opacity="1"><g transform="translate(398.686256, 456.602088)"><g><path d="M 57.054688 -39.554688 C 54.261719 -34.703125 48.085938 -24.703125 41.910156 -26.175781 C 32.792969 -28.234375 37.203125 -42.496094 41.171875 -52.054688 C 42.496094 -54.847656 43.671875 -57.203125 44.410156 -58.964844 C 46.46875 -63.230469 40.144531 -67.054688 38.085938 -62.640625 C 37.496094 -61.761719 36.910156 -60.582031 36.320312 -59.261719 C 17.792969 -69.554688 -12.792969 -39.554688 4.117188 -23.378906 C 13.234375 -14.851562 22.058594 -21.175781 29.261719 -31.027344 C 29.703125 -25.734375 32.054688 -21.027344 37.351562 -18.382812 C 48.085938 -12.941406 59.113281 -28.085938 63.523438 -35.878906 C 65.878906 -39.996094 59.40625 -43.820312 57.054688 -39.554688 Z M 17.203125 -29.117188 C 6.910156 -22.058594 5.882812 -36.761719 10.144531 -43.230469 C 15 -50.585938 25 -57.644531 33.527344 -52.789062 C 29.410156 -43.671875 24.558594 -34.113281 17.203125 -29.117188 Z M 17.203125 -29.117188 "/></g></g></g><g fill="#030303" fill-opacity="1"><g transform="translate(455.739185, 456.602088)"><g><path d="M 55.289062 -42.203125 C 51.613281 -44.410156 47.9375 -45.585938 43.96875 -46.027344 C 44.703125 -49.261719 44.703125 -52.644531 43.230469 -55.730469 C 40.292969 -61.613281 33.378906 -63.378906 27.496094 -61.171875 C 19.558594 -58.230469 13.085938 -51.027344 7.648438 -42.789062 C 14.117188 -63.671875 22.058594 -84.113281 28.820312 -104.699219 C 30.292969 -109.109375 23.378906 -111.019531 21.910156 -106.609375 C 12.058594 -76.613281 -0.589844 -47.203125 -7.058594 -16.175781 C -7.941406 -12.351562 -2.351562 -9.558594 -0.292969 -13.382812 C 4.117188 -21.46875 8.675781 -29.703125 13.824219 -37.351562 C 16.46875 -41.171875 35.4375 -65.4375 37.054688 -49.554688 C 37.054688 -48.671875 36.613281 -47.203125 35.734375 -45.4375 C 32.792969 -44.851562 29.703125 -43.820312 26.761719 -42.351562 C 21.027344 -39.554688 12.5 -33.675781 12.058594 -26.46875 C 11.910156 -20.734375 16.617188 -17.941406 21.910156 -19.117188 C 29.117188 -20.734375 35.292969 -28.675781 39.113281 -34.703125 C 39.851562 -35.878906 40.585938 -37.203125 41.320312 -38.671875 C 44.851562 -38.671875 48.230469 -37.9375 51.613281 -35.878906 C 55.585938 -33.378906 59.40625 -39.703125 55.289062 -42.203125 Z M 19.851562 -26.175781 C 18.085938 -28.675781 27.792969 -34.554688 30.144531 -35.878906 C 25.878906 -29.703125 21.175781 -24.410156 19.851562 -26.175781 Z M 19.851562 -26.175781 "/></g></g></g><g fill="#030303" fill-opacity="1"><g transform="translate(507.939673, 456.602088)"><g><path d="M 41.027344 -36.613281 C 31.46875 -34.851562 20.734375 -32.644531 11.324219 -28.378906 C 11.175781 -28.820312 11.175781 -29.261719 11.175781 -29.703125 C 10.585938 -32.496094 10 -35.4375 9.707031 -38.234375 C 9.410156 -40.4375 9.117188 -42.789062 9.410156 -44.996094 C 9.707031 -46.46875 10.144531 -48.085938 10.585938 -49.554688 C 15.144531 -54.40625 18.675781 -53.964844 21.320312 -48.230469 C 19.558594 -43.96875 26.46875 -42.054688 28.234375 -46.320312 C 32.9375 -57.789062 18.085938 -62.9375 9.410156 -58.230469 C -1.324219 -52.496094 2.058594 -38.234375 3.824219 -28.527344 C 3.96875 -27.203125 4.265625 -26.027344 4.410156 -24.851562 C 0.441406 -22.351562 -3.089844 -19.410156 -6.027344 -15.734375 C -11.617188 -8.675781 -17.792969 10.882812 -3.527344 12.058594 C 8.675781 13.085938 12.5 -0.589844 12.792969 -10 C 12.941406 -13.675781 12.792969 -17.5 12.351562 -21.175781 C 22.644531 -25.878906 35.4375 -28.085938 43.085938 -29.410156 C 47.644531 -30.292969 45.730469 -37.496094 41.027344 -36.613281 Z M 5.441406 -10 C 5.292969 -6.765625 5 -3.089844 3.527344 -0.148438 C 0.441406 5.585938 -5 4.558594 -4.558594 -2.058594 C -4.265625 -8.527344 -0.292969 -13.527344 5.148438 -17.203125 C 5.441406 -14.851562 5.441406 -12.5 5.441406 -10 Z M 5.441406 -10 "/></g></g></g><g fill="#5a5ca8" fill-opacity="1"><g transform="translate(548.674458, 456.602088)"><g><path d="M 46.320312 -84.992188 C 36.613281 -86.613281 27.9375 -81.464844 21.320312 -74.996094 C 7.207031 -61.023438 -6.910156 -32.9375 -2.941406 -12.5 C 0.589844 5.148438 17.5 6.175781 31.320312 -0.292969 C 48.96875 -8.675781 65.582031 -24.703125 74.257812 -42.203125 C 76.316406 -46.46875 69.847656 -50.289062 67.789062 -46.027344 C 62.347656 -35.144531 53.964844 -25.878906 44.851562 -18.234375 C 37.203125 -11.910156 22.941406 -0.589844 12.203125 -4.117188 C -3.234375 -9.265625 6.46875 -34.410156 10.734375 -44.554688 C 14.117188 -52.789062 18.382812 -60.730469 24.410156 -67.347656 C 27.058594 -70.140625 29.851562 -72.9375 33.085938 -74.996094 C 38.234375 -77.933594 52.9375 -81.757812 50.144531 -68.820312 C 49.113281 -64.261719 56.171875 -62.347656 57.203125 -66.90625 C 59.113281 -75.730469 55.585938 -83.523438 46.320312 -84.992188 Z M 46.320312 -84.992188 "/></g></g></g><g fill="#5a5ca8" fill-opacity="1"><g transform="translate(613.373656, 456.602088)"><g><path d="M 57.054688 -39.554688 C 54.261719 -34.703125 48.085938 -24.703125 41.910156 -26.175781 C 32.792969 -28.234375 37.203125 -42.496094 41.171875 -52.054688 C 42.496094 -54.847656 43.671875 -57.203125 44.410156 -58.964844 C 46.46875 -63.230469 40.144531 -67.054688 38.085938 -62.640625 C 37.496094 -61.761719 36.910156 -60.582031 36.320312 -59.261719 C 17.792969 -69.554688 -12.792969 -39.554688 4.117188 -23.378906 C 13.234375 -14.851562 22.058594 -21.175781 29.261719 -31.027344 C 29.703125 -25.734375 32.054688 -21.027344 37.351562 -18.382812 C 48.085938 -12.941406 59.113281 -28.085938 63.523438 -35.878906 C 65.878906 -39.996094 59.40625 -43.820312 57.054688 -39.554688 Z M 17.203125 -29.117188 C 6.910156 -22.058594 5.882812 -36.761719 10.144531 -43.230469 C 15 -50.585938 25 -57.644531 33.527344 -52.789062 C 29.410156 -43.671875 24.558594 -34.113281 17.203125 -29.117188 Z M 17.203125 -29.117188 "/></g></g></g><g fill="#5a5ca8" fill-opacity="1"><g transform="translate(670.426585, 456.602088)"><g><path d="M 41.027344 -36.613281 C 31.46875 -34.851562 20.734375 -32.644531 11.324219 -28.378906 C 11.175781 -28.820312 11.175781 -29.261719 11.175781 -29.703125 C 10.585938 -32.496094 10 -35.4375 9.707031 -38.234375 C 9.410156 -40.4375 9.117188 -42.789062 9.410156 -44.996094 C 9.707031 -46.46875 10.144531 -48.085938 10.585938 -49.554688 C 15.144531 -54.40625 18.675781 -53.964844 21.320312 -48.230469 C 19.558594 -43.96875 26.46875 -42.054688 28.234375 -46.320312 C 32.9375 -57.789062 18.085938 -62.9375 9.410156 -58.230469 C -1.324219 -52.496094 2.058594 -38.234375 3.824219 -28.527344 C 3.96875 -27.203125 4.265625 -26.027344 4.410156 -24.851562 C 0.441406 -22.351562 -3.089844 -19.410156 -6.027344 -15.734375 C -11.617188 -8.675781 -17.792969 10.882812 -3.527344 12.058594 C 8.675781 13.085938 12.5 -0.589844 12.792969 -10 C 12.941406 -13.675781 12.792969 -17.5 12.351562 -21.175781 C 22.644531 -25.878906 35.4375 -28.085938 43.085938 -29.410156 C 47.644531 -30.292969 45.730469 -37.496094 41.027344 -36.613281 Z M 5.441406 -10 C 5.292969 -6.765625 5 -3.089844 3.527344 -0.148438 C 0.441406 5.585938 -5 4.558594 -4.558594 -2.058594 C -4.265625 -8.527344 -0.292969 -13.527344 5.148438 -17.203125 C 5.441406 -14.851562 5.441406 -12.5 5.441406 -10 Z M 5.441406 -10 "/></g></g></g><g fill="#5a5ca8" fill-opacity="1"><g transform="translate(711.157675, 456.602088)"><g><path d="M 41.761719 -43.820312 C 36.320312 -36.761719 32.054688 -28.675781 25.734375 -22.351562 C 22.792969 -19.558594 16.324219 -13.527344 11.765625 -15 C 3.824219 -17.203125 7.792969 -33.085938 8.824219 -38.234375 C 11.324219 -50.144531 14.851562 -62.054688 18.675781 -73.816406 C 26.46875 -73.816406 34.261719 -73.671875 41.910156 -73.671875 C 46.761719 -73.671875 46.761719 -81.023438 41.910156 -81.171875 C 34.996094 -81.171875 28.085938 -81.171875 21.175781 -81.316406 C 24.410156 -90.875 27.792969 -100.433594 31.027344 -109.84375 C 32.496094 -114.402344 25.292969 -116.316406 23.820312 -111.757812 C 20.441406 -101.609375 17.203125 -91.464844 13.96875 -81.316406 C 10.292969 -81.316406 6.765625 -81.316406 3.234375 -81.316406 C -1.617188 -81.316406 -1.617188 -73.816406 3.234375 -73.816406 C 6.027344 -73.816406 8.824219 -73.816406 11.617188 -73.816406 C 9.558594 -67.347656 7.5 -61.023438 5.585938 -54.554688 C 2.207031 -43.527344 -5.148438 -22.941406 1.46875 -12.058594 C 6.324219 -3.824219 19.117188 -7.941406 25.4375 -12.203125 C 35.4375 -18.96875 41.171875 -30.585938 48.230469 -40.144531 C 51.027344 -43.96875 44.554688 -47.644531 41.761719 -43.820312 Z M 41.761719 -43.820312 "/></g></g></g></svg>